<svg width="250" height="64" viewBox="0 0 250 64" fill="none" xmlns="http://www.w3.org/2000/svg">
<path d="M22 58H42" stroke="white" stroke-width="4" stroke-linecap="round" stroke-linejoin="round"/>
<path d="M19.675 41.75C17.294 39.8986 15.3655 37.5296 14.0358 34.8225C12.706 32.1154 12.0098 29.1411 12 26.125C11.95 15.275 20.675 6.25 31.525 6C35.7241 5.90046 39.8481 7.12551 43.3119 9.50142C46.7757 11.8773 49.4035 15.2835 50.8227 19.2368C52.2419 23.1901 52.3805 27.4899 51.2187 31.5264C50.0568 35.5628 47.6537 39.1311 44.35 41.725C43.6202 42.2891 43.029 43.0126 42.6217 43.8402C42.2144 44.6678 42.0018 45.5776 42 46.5V48C42 48.5304 41.7893 49.0391 41.4142 49.4142C41.0391 49.7893 40.5304 50 40 50H24C23.4695 50 22.9608 49.7893 22.5858 49.4142C22.2107 49.0391 22 48.5304 22 48V46.5C21.9937 45.5845 21.7815 44.6822 21.379 43.8599C20.9765 43.0377 20.3941 42.3165 19.675 41.75V41.75Z" stroke="#FFD131" stroke-width="4" stroke-linecap="round" stroke-linejoin="round"/>
<path d="M34.025 14.2C36.4695 14.6143 38.725 15.7772 40.4804 17.5281C42.2358 19.279 43.4044 21.5316 43.825 23.975" stroke="#595959" stroke-width="4" stroke-linecap="round" stroke-linejoin="round"/>
<path d="M85.786 17.016V46.5H78.604V17.016H85.786ZM105.271 22.812C108.015 22.812 110.199 23.708 111.823 25.5C113.475 27.264 114.301 29.7 114.301 32.808V46.5H107.161V33.774C107.161 32.206 106.755 30.988 105.943 30.12C105.131 29.252 104.039 28.818 102.667 28.818C101.295 28.818 100.203 29.252 99.3907 30.12C98.5787 30.988 98.1727 32.206 98.1727 33.774V46.5H90.9907V23.064H98.1727V26.172C98.9007 25.136 99.8807 24.324 101.113 23.736C102.345 23.12 103.731 22.812 105.271 22.812ZM128.826 46.836C126.782 46.836 124.962 46.486 123.366 45.786C121.77 45.086 120.51 44.134 119.586 42.93C118.662 41.698 118.144 40.326 118.032 38.814H125.13C125.214 39.626 125.592 40.284 126.264 40.788C126.936 41.292 127.762 41.544 128.742 41.544C129.638 41.544 130.324 41.376 130.8 41.04C131.304 40.676 131.556 40.214 131.556 39.654C131.556 38.982 131.206 38.492 130.506 38.184C129.806 37.848 128.672 37.484 127.104 37.092C125.424 36.7 124.024 36.294 122.904 35.874C121.784 35.426 120.818 34.74 120.006 33.816C119.194 32.864 118.788 31.59 118.788 29.994C118.788 28.65 119.152 27.432 119.88 26.34C120.636 25.22 121.728 24.338 123.156 23.694C124.612 23.05 126.334 22.728 128.322 22.728C131.262 22.728 133.572 23.456 135.252 24.912C136.96 26.368 137.94 28.3 138.192 30.708H131.556C131.444 29.896 131.08 29.252 130.464 28.776C129.876 28.3 129.092 28.062 128.112 28.062C127.272 28.062 126.628 28.23 126.18 28.566C125.732 28.874 125.508 29.308 125.508 29.868C125.508 30.54 125.858 31.044 126.558 31.38C127.286 31.716 128.406 32.052 129.918 32.388C131.654 32.836 133.068 33.284 134.16 33.732C135.252 34.152 136.204 34.852 137.016 35.832C137.856 36.784 138.29 38.072 138.318 39.696C138.318 41.068 137.926 42.3 137.142 43.392C136.386 44.456 135.28 45.296 133.824 45.912C132.396 46.528 130.73 46.836 128.826 46.836ZM146.323 20.628C145.063 20.628 144.027 20.264 143.215 19.536C142.431 18.78 142.039 17.856 142.039 16.764C142.039 15.644 142.431 14.72 143.215 13.992C144.027 13.236 145.063 12.858 146.323 12.858C147.555 12.858 148.563 13.236 149.347 13.992C150.159 14.72 150.565 15.644 150.565 16.764C150.565 17.856 150.159 18.78 149.347 19.536C148.563 20.264 147.555 20.628 146.323 20.628ZM149.893 23.064V46.5H142.711V23.064H149.893ZM164.002 22.728C165.654 22.728 167.096 23.064 168.328 23.736C169.588 24.408 170.554 25.29 171.226 26.382V23.064H178.408V46.458C178.408 48.614 177.974 50.56 177.106 52.296C176.266 54.06 174.964 55.46 173.2 56.496C171.464 57.532 169.294 58.05 166.69 58.05C163.218 58.05 160.404 57.224 158.248 55.572C156.092 53.948 154.86 51.736 154.552 48.936H161.65C161.874 49.832 162.406 50.532 163.246 51.036C164.086 51.568 165.122 51.834 166.354 51.834C167.838 51.834 169.014 51.4 169.882 50.532C170.778 49.692 171.226 48.334 171.226 46.458V43.14C170.526 44.232 169.56 45.128 168.328 45.828C167.096 46.5 165.654 46.836 164.002 46.836C162.07 46.836 160.32 46.346 158.752 45.366C157.184 44.358 155.938 42.944 155.014 41.124C154.118 39.276 153.67 37.148 153.67 34.74C153.67 32.332 154.118 30.218 155.014 28.398C155.938 26.578 157.184 25.178 158.752 24.198C160.32 23.218 162.07 22.728 164.002 22.728ZM171.226 34.782C171.226 32.99 170.722 31.576 169.714 30.54C168.734 29.504 167.53 28.986 166.102 28.986C164.674 28.986 163.456 29.504 162.448 30.54C161.468 31.548 160.978 32.948 160.978 34.74C160.978 36.532 161.468 37.96 162.448 39.024C163.456 40.06 164.674 40.578 166.102 40.578C167.53 40.578 168.734 40.06 169.714 39.024C170.722 37.988 171.226 36.574 171.226 34.782ZM198.01 22.812C200.698 22.812 202.854 23.708 204.478 25.5C206.102 27.264 206.914 29.7 206.914 32.808V46.5H199.774V33.774C199.774 32.206 199.368 30.988 198.556 30.12C197.744 29.252 196.652 28.818 195.28 28.818C193.908 28.818 192.816 29.252 192.004 30.12C191.192 30.988 190.786 32.206 190.786 33.774V46.5H183.604V15.42H190.786V26.214C191.514 25.178 192.508 24.352 193.768 23.736C195.028 23.12 196.442 22.812 198.01 22.812ZM224.967 40.41V46.5H221.313C218.709 46.5 216.679 45.87 215.223 44.61C213.767 43.322 213.039 41.236 213.039 38.352V29.028H210.183V23.064H213.039V17.352H220.221V23.064H224.925V29.028H220.221V38.436C220.221 39.136 220.389 39.64 220.725 39.948C221.061 40.256 221.621 40.41 222.405 40.41H224.967ZM238.501 46.836C236.457 46.836 234.637 46.486 233.041 45.786C231.445 45.086 230.185 44.134 229.261 42.93C228.337 41.698 227.819 40.326 227.707 38.814H234.805C234.889 39.626 235.267 40.284 235.939 40.788C236.611 41.292 237.437 41.544 238.417 41.544C239.313 41.544 239.999 41.376 240.475 41.04C240.979 40.676 241.231 40.214 241.231 39.654C241.231 38.982 240.881 38.492 240.181 38.184C239.481 37.848 238.347 37.484 236.779 37.092C235.099 36.7 233.699 36.294 232.579 35.874C231.459 35.426 230.493 34.74 229.681 33.816C228.869 32.864 228.463 31.59 228.463 29.994C228.463 28.65 228.827 27.432 229.555 26.34C230.311 25.22 231.403 24.338 232.831 23.694C234.287 23.05 236.009 22.728 237.997 22.728C240.937 22.728 243.247 23.456 244.927 24.912C246.635 26.368 247.615 28.3 247.867 30.708H241.231C241.119 29.896 240.755 29.252 240.139 28.776C239.551 28.3 238.767 28.062 237.787 28.062C236.947 28.062 236.303 28.23 235.855 28.566C235.407 28.874 235.183 29.308 235.183 29.868C235.183 30.54 235.533 31.044 236.233 31.38C236.961 31.716 238.081 32.052 239.593 32.388C241.329 32.836 242.743 33.284 243.835 33.732C244.927 34.152 245.879 34.852 246.691 35.832C247.531 36.784 247.965 38.072 247.993 39.696C247.993 41.068 247.601 42.3 246.817 43.392C246.061 44.456 244.955 45.296 243.499 45.912C242.071 46.528 240.405 46.836 238.501 46.836Z" fill="white"/>
</svg>
